<svg width="1000" height="1000" viewBox="0 0 1000 1000" fill="none" xmlns="http://www.w3.org/2000/svg">
<g clip-path="url(#clip0_293_3173)">
<rect width="480" height="480" fill="#FF8941"/>
<rect y="520" width="480" height="480" fill="#47D33A"/>
<rect x="520" width="480" height="480" fill="#E815DE"/>
<rect x="520" y="520" width="480" height="480" fill="#F92929"/>
<path d="M118.703 82.2656H185.031V200.859H294.016V82.2656H360.109V390H294.016V267.656H185.031V390H118.703V82.2656Z" fill="white"/>
<path d="M732.812 82.2656H784.141L909.766 390H843.203L818.125 329.531H700.234L676.094 390H609.766L732.812 82.2656ZM758.594 183.047L722.734 273.75H795.625L758.594 183.047Z" fill="white"/>
<path d="M361.094 618.672V693.906C327.812 673.75 298.672 663.672 273.672 663.672C248.672 663.672 228.672 672.266 213.672 689.453C198.672 706.641 191.172 729.766 191.172 758.828C191.172 786.328 199.062 808.359 214.844 824.922C230.625 841.328 251.719 849.531 278.125 849.531C301.25 849.531 328.906 840.234 361.094 821.641V896.172C325 908.203 294.922 914.219 270.859 914.219C229.453 914.219 194.297 899.062 165.391 868.75C136.484 838.281 122.031 801.172 122.031 757.422C122.031 712.891 136.719 675.234 166.094 644.453C195.625 613.516 231.484 598.047 273.672 598.047C300.859 598.047 330 604.922 361.094 618.672Z" fill="white"/>
<path d="M640.578 602.266H706.906V732.344H707.844L810.031 602.266H891.125L774.172 749.219L896.047 910H816.359L707.844 766.094H706.906V910H640.578V602.266Z" fill="white"/>
</g>
<defs>
<clipPath id="clip0_293_3173">
<rect width="1000" height="1000" fill="white"/>
</clipPath>
</defs>
</svg>
